# xmcd
#
# Track frame offsets:
#	150
#	19309
#	33556
#	43295
#	57355
#	69973
#	85449
#	99729
#	110721
#	125207
#
# Disc length: 1844 seconds
#
# Revision: 0
# Processed by: cddbd v1.5PL3 Copyright (c) Steve Scherf et al.
# Submitted via: audiograbber 1.83.01
#
DISCID=9607320a
DTITLE=La Sombra De Linares - La Sombra De Linares
DYEAR=1900
DGENRE=Latin
TTITLE0=Los Calzones
TTITLE1=La Eche En Un Carrito
TTITLE2=Corazon Amargodo
TTITLE3=El Coyote
TTITLE4=Mas Enamorado
TTITLE5=El Columpio
TTITLE6=Me Volvi Cobarde
TTITLE7=Paso Del Norte
TTITLE8=Confusion
TTITLE9=Imposible Olvidarte
EXTD=
EXTT0=
EXTT1=
EXTT2=
EXTT3=
EXTT4=
EXTT5=
EXTT6=
EXTT7=
EXTT8=
EXTT9=
PLAYORDER=
